<?xml version="1.0" standalone="no"?>
<!DOCTYPE svg PUBLIC "-//W3C//DTD SVG 1.1//EN"
"http://www.w3.org/Graphics/SVG/1.1/DTD/svg11.dtd">

<svg width="852" height="518" view_box="0 0 852 518"
xmlns="http://www.w3.org/2000/svg"
xmlns:link="http://www.w3.org/1999/xlink">\n\n<desc>Généré par Mocodo 2.3.7 le Sun, 06 Sep 2020 23:19:00</desc>

<rect id="frame" x="0" y="0" width="852" height="518" fill="#f7f7f7" stroke="none" stroke-width="0"/>

<!-- Entity Utilisateur -->
<g id="entity-Utilisateur">
	<g id="frame-Utilisateur">
		<rect x="249" y="9" width="112" height="25" fill="#fdb863" stroke="#fdb863" stroke-width="0"/>
		<rect x="249" y="34.0" width="112" height="213" fill="#fee0b6" stroke="#fee0b6" stroke-width="0"/>
		<rect x="249" y="9" width="112" height="238" fill="none" stroke="#e08214" stroke-width="2"/>
		<line x1="249" y1="34" x2="361" y2="34" stroke="#e08214" stroke-width="1"/>
	</g>
	<text x="274" y="26.7" fill="#000000" font-family="Verdana" font-size="12">Utilisateur</text>
	<text x="254" y="51.7" fill="#000000" font-family="Verdana" font-size="12">id</text>
	<line x1="254" y1="54" x2="266" y2="54" stroke="#000000" stroke-width="1"/>
	<text x="254" y="68.7" fill="#000000" font-family="Verdana" font-size="12">login</text>
	<text x="254" y="85.7" fill="#000000" font-family="Verdana" font-size="12">nom</text>
	<text x="254" y="102.7" fill="#000000" font-family="Verdana" font-size="12">prenom</text>
	<text x="254" y="119.7" fill="#000000" font-family="Verdana" font-size="12">email</text>
	<text x="254" y="136.8" fill="#000000" font-family="Verdana" font-size="12">datedenaissance</text>
	<text x="254" y="153.8" fill="#000000" font-family="Verdana" font-size="12">homme</text>
	<text x="254" y="170.8" fill="#000000" font-family="Verdana" font-size="12">motdepasse</text>
	<text x="254" y="187.8" fill="#000000" font-family="Verdana" font-size="12">presel</text>
	<text x="254" y="204.8" fill="#000000" font-family="Verdana" font-size="12">postsel</text>
	<text x="254" y="221.8" fill="#000000" font-family="Verdana" font-size="12">cartedecredit</text>
	<text x="254" y="238.8" fill="#000000" font-family="Verdana" font-size="12">actif</text>
</g>

<!-- Entity UtilisateurMessageEfface -->
<g id="entity-UtilisateurMessageEfface">
	<g id="frame-UtilisateurMessageEfface">
		<rect x="649" y="399" width="162" height="25" fill="#fdb863" stroke="#fdb863" stroke-width="0"/>
		<rect x="649" y="424.0" width="162" height="59" fill="#fee0b6" stroke="#fee0b6" stroke-width="0"/>
		<rect x="649" y="399" width="162" height="84" fill="none" stroke="#e08214" stroke-width="2"/>
		<line x1="649" y1="424" x2="811" y2="424" stroke="#e08214" stroke-width="1"/>
	</g>
	<text x="654" y="416.7" fill="#000000" font-family="Verdana" font-size="12">UtilisateurMessageEfface</text>
	<text x="654" y="441.8" fill="#000000" font-family="Verdana" font-size="12">effaceur</text>
	<line x1="654" y1="444" x2="704" y2="444" stroke="#000000" stroke-width="1"/>
	<text x="654" y="458.8" fill="#000000" font-family="Verdana" font-size="12">message</text>
	<line x1="654" y1="461" x2="708" y2="461" stroke="#000000" stroke-width="1"/>
	<text x="654" y="475.8" fill="#000000" font-family="Verdana" font-size="12">date</text>
</g>

<!-- Entity UtilisateurNouvelle -->
<g id="entity-UtilisateurNouvelle">
	<g id="frame-UtilisateurNouvelle">
		<rect x="41" y="86" width="124" height="25" fill="#fdb863" stroke="#fdb863" stroke-width="0"/>
		<rect x="41" y="111.0" width="124" height="59" fill="#fee0b6" stroke="#fee0b6" stroke-width="0"/>
		<rect x="41" y="86" width="124" height="84" fill="none" stroke="#e08214" stroke-width="2"/>
		<line x1="41" y1="111" x2="165" y2="111" stroke="#e08214" stroke-width="1"/>
	</g>
	<text x="46" y="103.7" fill="#000000" font-family="Verdana" font-size="12">UtilisateurNouvelle</text>
	<text x="46" y="128.8" fill="#000000" font-family="Verdana" font-size="12">publicateur</text>
	<line x1="46" y1="131" x2="114" y2="131" stroke="#000000" stroke-width="1"/>
	<text x="46" y="145.8" fill="#000000" font-family="Verdana" font-size="12">nouvelle</text>
	<line x1="46" y1="148" x2="97" y2="148" stroke="#000000" stroke-width="1"/>
	<text x="46" y="162.8" fill="#000000" font-family="Verdana" font-size="12">datepublication</text>
</g>

<!-- Entity Nouvelle -->
<g id="entity-Nouvelle">
	<g id="frame-Nouvelle">
		<rect x="71" y="255" width="64" height="25" fill="#fdb863" stroke="#fdb863" stroke-width="0"/>
		<rect x="71" y="280.0" width="64" height="77" fill="#fee0b6" stroke="#fee0b6" stroke-width="0"/>
		<rect x="71" y="255" width="64" height="102" fill="none" stroke="#e08214" stroke-width="2"/>
		<line x1="71" y1="280" x2="135" y2="280" stroke="#e08214" stroke-width="1"/>
	</g>
	<text x="76" y="272.7" fill="#000000" font-family="Verdana" font-size="12">Nouvelle</text>
	<text x="76" y="297.7" fill="#000000" font-family="Verdana" font-size="12">id</text>
	<line x1="76" y1="300" x2="88" y2="300" stroke="#000000" stroke-width="1"/>
	<text x="76" y="314.8" fill="#000000" font-family="Verdana" font-size="12">titre</text>
	<text x="76" y="331.8" fill="#000000" font-family="Verdana" font-size="12">texte</text>
	<text x="76" y="348.8" fill="#000000" font-family="Verdana" font-size="12">actif</text>
</g>

<!-- Entity UtilisateurConversation -->
<g id="entity-UtilisateurConversation">
	<g id="frame-UtilisateurConversation">
		<rect x="229" y="272" width="152" height="25" fill="#fdb863" stroke="#fdb863" stroke-width="0"/>
		<rect x="229" y="297.0" width="152" height="43" fill="#fee0b6" stroke="#fee0b6" stroke-width="0"/>
		<rect x="229" y="272" width="152" height="68" fill="none" stroke="#e08214" stroke-width="2"/>
		<line x1="229" y1="297" x2="381" y2="297" stroke="#e08214" stroke-width="1"/>
	</g>
	<text x="234" y="289.7" fill="#000000" font-family="Verdana" font-size="12">UtilisateurConversation</text>
	<text x="234" y="314.8" fill="#000000" font-family="Verdana" font-size="12">utilisateur</text>
	<line x1="234" y1="317" x2="295" y2="317" stroke="#000000" stroke-width="1"/>
	<text x="234" y="331.8" fill="#000000" font-family="Verdana" font-size="12">conversation</text>
	<line x1="234" y1="334" x2="312" y2="334" stroke="#000000" stroke-width="1"/>
</g>

<!-- Entity UtilisateurTheme -->
<g id="entity-UtilisateurTheme">
	<g id="frame-UtilisateurTheme">
		<rect x="458" y="94" width="114" height="25" fill="#fdb863" stroke="#fdb863" stroke-width="0"/>
		<rect x="458" y="119.0" width="114" height="43" fill="#fee0b6" stroke="#fee0b6" stroke-width="0"/>
		<rect x="458" y="94" width="114" height="68" fill="none" stroke="#e08214" stroke-width="2"/>
		<line x1="458" y1="119" x2="572" y2="119" stroke="#e08214" stroke-width="1"/>
	</g>
	<text x="463" y="111.7" fill="#000000" font-family="Verdana" font-size="12">UtilisateurTheme</text>
	<text x="463" y="136.8" fill="#000000" font-family="Verdana" font-size="12">utilisateur</text>
	<line x1="463" y1="139" x2="524" y2="139" stroke="#000000" stroke-width="1"/>
	<text x="463" y="153.8" fill="#000000" font-family="Verdana" font-size="12">theme</text>
	<line x1="463" y1="156" x2="502" y2="156" stroke="#000000" stroke-width="1"/>
</g>

<!-- Entity Conversation -->
<g id="entity-Conversation">
	<g id="frame-Conversation">
		<rect x="260" y="416" width="90" height="25" fill="#fdb863" stroke="#fdb863" stroke-width="0"/>
		<rect x="260" y="441.0" width="90" height="25" fill="#fee0b6" stroke="#fee0b6" stroke-width="0"/>
		<rect x="260" y="416" width="90" height="50" fill="none" stroke="#e08214" stroke-width="2"/>
		<line x1="260" y1="441" x2="350" y2="441" stroke="#e08214" stroke-width="1"/>
	</g>
	<text x="265" y="433.7" fill="#000000" font-family="Verdana" font-size="12">Conversation</text>
	<text x="265" y="458.8" fill="#000000" font-family="Verdana" font-size="12">id</text>
	<line x1="265" y1="461" x2="277" y2="461" stroke="#000000" stroke-width="1"/>
</g>

<!-- Entity Theme -->
<g id="entity-Theme">
	<g id="frame-Theme">
		<rect x="704" y="94" width="52" height="25" fill="#fdb863" stroke="#fdb863" stroke-width="0"/>
		<rect x="704" y="119.0" width="52" height="43" fill="#fee0b6" stroke="#fee0b6" stroke-width="0"/>
		<rect x="704" y="94" width="52" height="68" fill="none" stroke="#e08214" stroke-width="2"/>
		<line x1="704" y1="119" x2="756" y2="119" stroke="#e08214" stroke-width="1"/>
	</g>
	<text x="709" y="111.7" fill="#000000" font-family="Verdana" font-size="12">Theme</text>
	<text x="709" y="136.8" fill="#000000" font-family="Verdana" font-size="12">id</text>
	<line x1="709" y1="139" x2="721" y2="139" stroke="#000000" stroke-width="1"/>
	<text x="709" y="153.8" fill="#000000" font-family="Verdana" font-size="12">nom</text>
</g>

<!-- Entity MessageForum -->
<g id="entity-MessageForum">
	<g id="frame-MessageForum">
		<rect x="679" y="238" width="102" height="25" fill="#fdb863" stroke="#fdb863" stroke-width="0"/>
		<rect x="679" y="263.0" width="102" height="111" fill="#fee0b6" stroke="#fee0b6" stroke-width="0"/>
		<rect x="679" y="238" width="102" height="136" fill="none" stroke="#e08214" stroke-width="2"/>
		<line x1="679" y1="263" x2="781" y2="263" stroke="#e08214" stroke-width="1"/>
	</g>
	<text x="684" y="255.7" fill="#000000" font-family="Verdana" font-size="12">MessageForum</text>
	<text x="684" y="280.7" fill="#000000" font-family="Verdana" font-size="12">id</text>
	<line x1="684" y1="283" x2="696" y2="283" stroke="#000000" stroke-width="1"/>
	<text x="684" y="297.7" fill="#000000" font-family="Verdana" font-size="12">titre</text>
	<text x="684" y="314.8" fill="#000000" font-family="Verdana" font-size="12">texte</text>
	<text x="684" y="331.8" fill="#000000" font-family="Verdana" font-size="12">actif</text>
	<text x="684" y="348.8" fill="#000000" font-family="Verdana" font-size="12">theme</text>
	<text x="684" y="365.8" fill="#000000" font-family="Verdana" font-size="12">date</text>
</g>

<!-- Entity UtilisateurMessageLit -->
<g id="entity-UtilisateurMessageLit">
	<g id="frame-UtilisateurMessageLit">
		<rect x="445" y="264" width="140" height="25" fill="#fdb863" stroke="#fdb863" stroke-width="0"/>
		<rect x="445" y="289.0" width="140" height="59" fill="#fee0b6" stroke="#fee0b6" stroke-width="0"/>
		<rect x="445" y="264" width="140" height="84" fill="none" stroke="#e08214" stroke-width="2"/>
		<line x1="445" y1="289" x2="585" y2="289" stroke="#e08214" stroke-width="1"/>
	</g>
	<text x="450" y="281.7" fill="#000000" font-family="Verdana" font-size="12">UtilisateurMessageLit</text>
	<text x="450" y="306.8" fill="#000000" font-family="Verdana" font-size="12">lecteur</text>
	<line x1="450" y1="309" x2="492" y2="309" stroke="#000000" stroke-width="1"/>
	<text x="450" y="323.8" fill="#000000" font-family="Verdana" font-size="12">message</text>
	<line x1="450" y1="326" x2="504" y2="326" stroke="#000000" stroke-width="1"/>
	<text x="450" y="340.8" fill="#000000" font-family="Verdana" font-size="12">date</text>
</g>

<!-- Entity Message -->
<g id="entity-Message">
	<g id="frame-Message">
		<rect x="460" y="373" width="110" height="25" fill="#fdb863" stroke="#fdb863" stroke-width="0"/>
		<rect x="460" y="398.0" width="110" height="111" fill="#fee0b6" stroke="#fee0b6" stroke-width="0"/>
		<rect x="460" y="373" width="110" height="136" fill="none" stroke="#e08214" stroke-width="2"/>
		<line x1="460" y1="398" x2="570" y2="398" stroke="#e08214" stroke-width="1"/>
	</g>
	<text x="488" y="390.7" fill="#000000" font-family="Verdana" font-size="12">Message</text>
	<text x="465" y="415.7" fill="#000000" font-family="Verdana" font-size="12">id</text>
	<line x1="465" y1="418" x2="477" y2="418" stroke="#000000" stroke-width="1"/>
	<text x="465" y="432.7" fill="#000000" font-family="Verdana" font-size="12">sujet</text>
	<text x="465" y="449.8" fill="#000000" font-family="Verdana" font-size="12">textedumessage</text>
	<text x="465" y="466.8" fill="#000000" font-family="Verdana" font-size="12">conversation</text>
	<text x="465" y="483.8" fill="#000000" font-family="Verdana" font-size="12">emetteur</text>
	<text x="465" y="500.8" fill="#000000" font-family="Verdana" font-size="12">date</text>
</g>

<!-- Link from "emetteur" (UtilisateurMessageEfface) to "emetteur" (Message) -->
<path d="M649 437.5 C 609.5 458.5 622.666666667 479.5 570 479.5" fill="none" stroke="#8073ac" stroke-width="2"/>
<path d="M 570 479.5 L 582.0 473.5 L 578.0 479.5 L 582.0 485.5 Z" fill="#8073ac" stroke-width="0"/>
<circle cx="649" cy="437.5" r="2" stroke="#8073ac" stroke-width="2" fill="#8073ac"/>

<!-- Link from "id" (UtilisateurMessageEfface) to "id" (Message) -->
<path d="M649 454.5 C 609.5 433.0 622.666666667 411.5 570 411.5" fill="none" stroke="#8073ac" stroke-width="2"/>
<path d="M 570 411.5 L 582.0 405.5 L 578.0 411.5 L 582.0 417.5 Z" fill="#8073ac" stroke-width="0"/>
<circle cx="649" cy="454.5" r="2" stroke="#8073ac" stroke-width="2" fill="#8073ac"/>

<!-- Link from "id" (UtilisateurNouvelle) to "id" (Utilisateur) -->
<path d="M165 124.5 C 207.0 86.0 193.0 47.5 249 47.5" fill="none" stroke="#8073ac" stroke-width="2"/>
<path d="M 249 47.5 L 237.0 53.5 L 241.0 47.5 L 237.0 41.5 Z" fill="#8073ac" stroke-width="0"/>
<circle cx="165" cy="124.5" r="2" stroke="#8073ac" stroke-width="2" fill="#8073ac"/>

<!-- Link from "id" (UtilisateurNouvelle) to "id" (Nouvelle) -->
<path d="M41 141.5 C -13 217.5 17 293.5 71 293.5" fill="none" stroke="#8073ac" stroke-width="2"/>
<path d="M 71 293.5 L 59.0 299.5 L 63.0 293.5 L 59.0 287.5 Z" fill="#8073ac" stroke-width="0"/>
<circle cx="41" cy="141.5" r="2" stroke="#8073ac" stroke-width="2" fill="#8073ac"/>

<!-- Link from "id" (UtilisateurConversation) to "id" (Utilisateur) -->
<path d="M381 310.5 C 435 179.0 415 47.5 361 47.5" fill="none" stroke="#8073ac" stroke-width="2"/>
<path d="M 361 47.5 L 373.0 41.5 L 369.0 47.5 L 373.0 53.5 Z" fill="#8073ac" stroke-width="0"/>
<circle cx="381" cy="310.5" r="2" stroke="#8073ac" stroke-width="2" fill="#8073ac"/>

<!-- Link from "id" (UtilisateurConversation) to "id" (Conversation) -->
<path d="M229 327.5 C 175 391.0 206 454.5 260 454.5" fill="none" stroke="#8073ac" stroke-width="2"/>
<path d="M 260 454.5 L 248.0 460.5 L 252.0 454.5 L 248.0 448.5 Z" fill="#8073ac" stroke-width="0"/>
<circle cx="229" cy="327.5" r="2" stroke="#8073ac" stroke-width="2" fill="#8073ac"/>

<!-- Link from "id" (UtilisateurTheme) to "id" (Utilisateur) -->
<path d="M458 132.5 C 409.5 90.0 425.666666667 47.5 361 47.5" fill="none" stroke="#8073ac" stroke-width="2"/>
<path d="M 361 47.5 L 373.0 41.5 L 369.0 47.5 L 373.0 53.5 Z" fill="#8073ac" stroke-width="0"/>
<circle cx="458" cy="132.5" r="2" stroke="#8073ac" stroke-width="2" fill="#8073ac"/>

<!-- Link from "id" (UtilisateurTheme) to "id" (Theme) -->
<path d="M572 149.5 C 638.0 141.0 616.0 132.5 704 132.5" fill="none" stroke="#8073ac" stroke-width="2"/>
<path d="M 704 132.5 L 692.0 138.5 L 696.0 132.5 L 692.0 126.5 Z" fill="#8073ac" stroke-width="0"/>
<circle cx="572" cy="149.5" r="2" stroke="#8073ac" stroke-width="2" fill="#8073ac"/>

<!-- Link from "id" (MessageForum) to "id" (Theme) -->
<path d="M781 344.5 C 835 238.5 810 132.5 756 132.5" fill="none" stroke="#8073ac" stroke-width="2"/>
<path d="M 756 132.5 L 768.0 126.5 L 764.0 132.5 L 768.0 138.5 Z" fill="#8073ac" stroke-width="0"/>
<circle cx="781" cy="344.5" r="2" stroke="#8073ac" stroke-width="2" fill="#8073ac"/>

<!-- Link from "utilisateur" (UtilisateurMessageLit) to "utilisateur" (UtilisateurConversation) -->
<path d="M445 302.5 C 413.0 306.5 423.666666667 310.5 381 310.5" fill="none" stroke="#8073ac" stroke-width="2"/>
<path d="M 381 310.5 L 393.0 304.5 L 389.0 310.5 L 393.0 316.5 Z" fill="#8073ac" stroke-width="0"/>
<circle cx="445" cy="302.5" r="2" stroke="#8073ac" stroke-width="2" fill="#8073ac"/>

<!-- Link from "id" (UtilisateurMessageLit) to "id" (Message) -->
<path d="M445 319.5 C 391 365.5 406 411.5 460 411.5" fill="none" stroke="#8073ac" stroke-width="2"/>
<path d="M 460 411.5 L 448.0 417.5 L 452.0 411.5 L 448.0 405.5 Z" fill="#8073ac" stroke-width="0"/>
<circle cx="445" cy="319.5" r="2" stroke="#8073ac" stroke-width="2" fill="#8073ac"/>

<!-- Link from "id" (Message) to "id" (Conversation) -->
<path d="M460 462.5 C 405.0 458.5 423.333333333 454.5 350 454.5" fill="none" stroke="#8073ac" stroke-width="2"/>
<path d="M 350 454.5 L 362.0 448.5 L 358.0 454.5 L 362.0 460.5 Z" fill="#8073ac" stroke-width="0"/>
<circle cx="460" cy="462.5" r="2" stroke="#8073ac" stroke-width="2" fill="#8073ac"/>

<!-- Link from "utilisateur" (Message) to "utilisateur" (UtilisateurConversation) -->
<path d="M460 479.5 C 420.5 395.0 433.666666667 310.5 381 310.5" fill="none" stroke="#8073ac" stroke-width="2"/>
<path d="M 381 310.5 L 393.0 304.5 L 389.0 310.5 L 393.0 316.5 Z" fill="#8073ac" stroke-width="0"/>
<circle cx="460" cy="479.5" r="2" stroke="#8073ac" stroke-width="2" fill="#8073ac"/>
</svg>