<?xml version="1.0" standalone="no"?>
<!DOCTYPE svg PUBLIC "-//W3C//DTD SVG 1.1//EN"
"http://www.w3.org/Graphics/SVG/1.1/DTD/svg11.dtd">

<svg width="691" height="576" view_box="0 0 691 576"
xmlns="http://www.w3.org/2000/svg"
xmlns:link="http://www.w3.org/1999/xlink">\n\n<desc>Généré par Mocodo 2.3.7 le Sun, 06 Sep 2020 22:52:53</desc>

<rect id="frame" x="0" y="0" width="691" height="576" fill="#ffffbf" stroke="none" stroke-width="0"/>

<!-- Association Contient -->
<line x1="538" y1="499" x2="397" y2="499" stroke="#66bd63" stroke-width="2"/>
<text x="473" y="516.0" fill="#d73027" font-family="Verdana" font-size="12">0,n</text>
<line x1="247" y1="499" x2="397" y2="499" stroke="#66bd63" stroke-width="2"/>
<text x="308" y="516.0" fill="#d73027" font-family="Verdana" font-size="12">1,1</text>
<g id="association-Contient">
	<path d="M 416 474 a 14 14 90 0 1 14 14 V 499 h -66 V 488 a 14 14 90 0 1 14 -14" fill="#a6d96a" stroke="#a6d96a" stroke-width="0"/>
	<path d="M 430 499.0 v 11 a 14 14 90 0 1 -14 14 H 378 a 14 14 90 0 1 -14 -14 V 499.0 H 66" fill="#d9ef8b" stroke="#d9ef8b" stroke-width="0"/>
	<rect x="364" y="474" width="66" height="50" fill="none" rx="14" stroke="#66bd63" stroke-width="2"/>
	<line x1="364" y1="499" x2="430" y2="499" stroke="#66bd63" stroke-width="1"/>
	<text x="371" y="491.7" fill="#000000" font-family="Verdana" font-size="12">Contient</text>
	<text x="371" y="516.8" fill="#000000" font-family="Verdana" font-size="12">date</text>
</g>

<!-- Association Est en couple -->
<path d="M247 499 C 206.666666667 532.333333333 151.666666667 532.333333333 82 499" fill="none" stroke="#66bd63" stroke-width="2"/>
<text x="165" y="515.0" fill="#d73027" font-family="Verdana" font-size="12">0,1</text>
<path d="M247 499 C 206.666666667 465.666666667 151.666666667 465.666666667 82 499" fill="none" stroke="#66bd63" stroke-width="2"/>
<text x="165" y="492.0" fill="#d73027" font-family="Verdana" font-size="12">0,1</text>
<g id="association-Est en couple">
	<path d="M 116 465 a 14 14 90 0 1 14 14 V 490 h -96 V 479 a 14 14 90 0 1 14 -14" fill="#a6d96a" stroke="#a6d96a" stroke-width="0"/>
	<path d="M 130 490.0 v 29 a 14 14 90 0 1 -14 14 H 48 a 14 14 90 0 1 -14 -14 V 490.0 H 96" fill="#d9ef8b" stroke="#d9ef8b" stroke-width="0"/>
	<rect x="34" y="465" width="96" height="68" fill="none" rx="14" stroke="#66bd63" stroke-width="2"/>
	<line x1="34" y1="490" x2="130" y2="490" stroke="#66bd63" stroke-width="1"/>
	<text x="41" y="482.7" fill="#000000" font-family="Verdana" font-size="12">Est en couple</text>
	<text x="41" y="507.8" fill="#000000" font-family="Verdana" font-size="12">datedébut</text>
	<text x="41" y="524.8" fill="#000000" font-family="Verdana" font-size="12">datefin</text>
</g>

<!-- Association Crée -->
<line x1="397" y1="212" x2="397" y2="381" stroke="#66bd63" stroke-width="2"/>
<text x="371.0" y="348" fill="#d73027" font-family="Verdana" font-size="12">0,n</text>
<line x1="538" y1="499" x2="397" y2="381" stroke="#66bd63" stroke-width="2"/>
<text x="473" y="477.175243607" fill="#d73027" font-family="Verdana" font-size="12">1,1</text>
<g id="association-Crée">
	<path d="M 405 356 a 14 14 90 0 1 14 14 V 381 h -44 V 370 a 14 14 90 0 1 14 -14" fill="#a6d96a" stroke="#a6d96a" stroke-width="0"/>
	<path d="M 419 381.0 v 11 a 14 14 90 0 1 -14 14 H 389 a 14 14 90 0 1 -14 -14 V 381.0 H 44" fill="#d9ef8b" stroke="#d9ef8b" stroke-width="0"/>
	<rect x="375" y="356" width="44" height="50" fill="none" rx="14" stroke="#66bd63" stroke-width="2"/>
	<line x1="375" y1="381" x2="419" y2="381" stroke="#66bd63" stroke-width="1"/>
	<text x="382" y="373.7" fill="#000000" font-family="Verdana" font-size="12">Crée</text>
	<text x="382" y="398.8" fill="#000000" font-family="Verdana" font-size="12">date</text>
</g>

<!-- Association a pour rôle -->
<line x1="397" y1="212" x2="397" y2="43" stroke="#66bd63" stroke-width="2"/>
<text x="402.0" y="85" fill="#d73027" font-family="Verdana" font-size="12">1,n</text>
<line x1="247" y1="43" x2="397" y2="43" stroke="#66bd63" stroke-width="2"/>
<text x="271" y="60.0" fill="#d73027" font-family="Verdana" font-size="12">0,n</text>
<g id="association-a pour rôle">
	<path d="M 424 18 a 14 14 90 0 1 14 14 V 43 h -82 V 32 a 14 14 90 0 1 14 -14" fill="#a6d96a" stroke="#a6d96a" stroke-width="0"/>
	<path d="M 438 43.0 v 11 a 14 14 90 0 1 -14 14 H 370 a 14 14 90 0 1 -14 -14 V 43.0 H 82" fill="#d9ef8b" stroke="#d9ef8b" stroke-width="0"/>
	<rect x="356" y="18" width="82" height="50" fill="none" rx="14" stroke="#66bd63" stroke-width="2"/>
	<line x1="356" y1="43" x2="438" y2="43" stroke="#66bd63" stroke-width="1"/>
	<text x="363" y="35.7" fill="#000000" font-family="Verdana" font-size="12">a pour rôle</text>
</g>

<!-- Association Est enfant -->
<path d="M247 499 C 205.666666667 431.0 205.666666667 391.666666667 247 381" fill="none" stroke="#66bd63" stroke-width="2"/>
<text x="223.0" y="423" fill="#d73027" font-family="Verdana" font-size="12">0,2</text>
<path d="M247 499 C 288.333333333 431.0 288.333333333 391.666666667 247 381" fill="none" stroke="#66bd63" stroke-width="2"/>
<text x="250.0" y="423" fill="#d73027" font-family="Verdana" font-size="12">0,n</text>
<g id="association-Est enfant">
	<path d="M 271 356 a 14 14 90 0 1 14 14 V 381 h -76 V 370 a 14 14 90 0 1 14 -14" fill="#a6d96a" stroke="#a6d96a" stroke-width="0"/>
	<path d="M 285 381.0 v 11 a 14 14 90 0 1 -14 14 H 223 a 14 14 90 0 1 -14 -14 V 381.0 H 76" fill="#d9ef8b" stroke="#d9ef8b" stroke-width="0"/>
	<rect x="209" y="356" width="76" height="50" fill="none" rx="14" stroke="#66bd63" stroke-width="2"/>
	<line x1="209" y1="381" x2="285" y2="381" stroke="#66bd63" stroke-width="1"/>
	<text x="216" y="373.7" fill="#000000" font-family="Verdana" font-size="12">Est enfant</text>
</g>

<!-- Association S'abonne -->
<line x1="397" y1="212" x2="247" y2="212" stroke="#66bd63" stroke-width="2"/>
<text x="313" y="229.0" fill="#d73027" font-family="Verdana" font-size="12">0,n</text>
<line x1="82" y1="212" x2="247" y2="212" stroke="#66bd63" stroke-width="2"/>
<text x="160" y="229.0" fill="#d73027" font-family="Verdana" font-size="12">0,n</text>
<g id="association-S'abonne">
	<path d="M 293 178 a 14 14 90 0 1 14 14 V 203 h -120 V 192 a 14 14 90 0 1 14 -14" fill="#a6d96a" stroke="#a6d96a" stroke-width="0"/>
	<path d="M 307 203.0 v 29 a 14 14 90 0 1 -14 14 H 201 a 14 14 90 0 1 -14 -14 V 203.0 H 120" fill="#d9ef8b" stroke="#d9ef8b" stroke-width="0"/>
	<rect x="187" y="178" width="120" height="68" fill="none" rx="14" stroke="#66bd63" stroke-width="2"/>
	<line x1="187" y1="203" x2="307" y2="203" stroke="#66bd63" stroke-width="1"/>
	<text x="218" y="195.7" fill="#000000" font-family="Verdana" font-size="12">S'abonne</text>
	<text x="194" y="220.8" fill="#000000" font-family="Verdana" font-size="12">date</text>
	<text x="194" y="237.8" fill="#000000" font-family="Verdana" font-size="12">cartedepayement</text>
</g>

<!-- Association Choisitblocage -->
<line x1="397" y1="212" x2="538" y2="212" stroke="#66bd63" stroke-width="2"/>
<text x="460" y="204.0" fill="#d73027" font-family="Verdana" font-size="12">0,n</text>
<line x1="643" y1="381" x2="538" y2="212" stroke="#66bd63" stroke-width="2"/>
<text x="617.108846707" y="331" fill="#d73027" font-family="Verdana" font-size="12">0,n</text>
<g id="association-Choisitblocage">
	<path d="M 575 187 a 14 14 90 0 1 14 14 V 212 h -102 V 201 a 14 14 90 0 1 14 -14" fill="#a6d96a" stroke="#a6d96a" stroke-width="0"/>
	<path d="M 589 212.0 v 11 a 14 14 90 0 1 -14 14 H 501 a 14 14 90 0 1 -14 -14 V 212.0 H 102" fill="#d9ef8b" stroke="#d9ef8b" stroke-width="0"/>
	<rect x="487" y="187" width="102" height="50" fill="none" rx="14" stroke="#66bd63" stroke-width="2"/>
	<line x1="487" y1="212" x2="589" y2="212" stroke="#66bd63" stroke-width="1"/>
	<text x="494" y="204.7" fill="#000000" font-family="Verdana" font-size="12">Choisitblocage</text>
</g>

<!-- Association Bloque -->
<line x1="643" y1="381" x2="643" y2="499" stroke="#66bd63" stroke-width="2"/>
<text x="648.0" y="440" fill="#d73027" font-family="Verdana" font-size="12">0,n</text>
<line x1="538" y1="499" x2="643" y2="499" stroke="#66bd63" stroke-width="2"/>
<text x="582" y="516.0" fill="#d73027" font-family="Verdana" font-size="12">0,1</text>
<g id="association-Bloque">
	<path d="M 657 474 a 14 14 90 0 1 14 14 V 499 h -56 V 488 a 14 14 90 0 1 14 -14" fill="#a6d96a" stroke="#a6d96a" stroke-width="0"/>
	<path d="M 671 499.0 v 11 a 14 14 90 0 1 -14 14 H 629 a 14 14 90 0 1 -14 -14 V 499.0 H 56" fill="#d9ef8b" stroke="#d9ef8b" stroke-width="0"/>
	<rect x="615" y="474" width="56" height="50" fill="none" rx="14" stroke="#66bd63" stroke-width="2"/>
	<line x1="615" y1="499" x2="671" y2="499" stroke="#66bd63" stroke-width="1"/>
	<text x="622" y="491.7" fill="#000000" font-family="Verdana" font-size="12">Bloque</text>
	<text x="622" y="516.8" fill="#000000" font-family="Verdana" font-size="12">date</text>
</g>

<!-- Association Consulte -->
<line x1="397" y1="212" x2="538" y2="381" stroke="#66bd63" stroke-width="2"/>
<text x="460" y="279.68917526" fill="#d73027" font-family="Verdana" font-size="12">0,n</text>
<line x1="538" y1="499" x2="538" y2="381" stroke="#66bd63" stroke-width="2"/>
<text x="543.0" y="449" fill="#d73027" font-family="Verdana" font-size="12">0,n</text>
<g id="association-Consulte">
	<path d="M 558 356 a 14 14 90 0 1 14 14 V 381 h -68 V 370 a 14 14 90 0 1 14 -14" fill="#a6d96a" stroke="#a6d96a" stroke-width="0"/>
	<path d="M 572 381.0 v 11 a 14 14 90 0 1 -14 14 H 518 a 14 14 90 0 1 -14 -14 V 381.0 H 68" fill="#d9ef8b" stroke="#d9ef8b" stroke-width="0"/>
	<rect x="504" y="356" width="68" height="50" fill="none" rx="14" stroke="#66bd63" stroke-width="2"/>
	<line x1="504" y1="381" x2="572" y2="381" stroke="#66bd63" stroke-width="1"/>
	<text x="511" y="373.7" fill="#000000" font-family="Verdana" font-size="12">Consulte</text>
	<text x="511" y="398.8" fill="#000000" font-family="Verdana" font-size="12">date</text>
</g>

<!-- Entity Utilisateur -->
<g id="entity-Utilisateur">
	<g id="frame-Utilisateur">
		<rect x="339" y="93" width="116" height="25" fill="#fdae61" stroke="#fdae61" stroke-width="0"/>
		<rect x="339" y="118.0" width="116" height="213" fill="#fee08b" stroke="#fee08b" stroke-width="0"/>
		<rect x="339" y="93" width="116" height="238" fill="none" stroke="#f46d43" stroke-width="2"/>
		<line x1="339" y1="118" x2="455" y2="118" stroke="#f46d43" stroke-width="1"/>
	</g>
	<text x="366" y="110.7" fill="#000000" font-family="Verdana" font-size="12">Utilisateur</text>
	<text x="344" y="135.7" fill="#000000" font-family="Verdana" font-size="12">id</text>
	<line x1="344" y1="138" x2="356" y2="138" stroke="#000000" stroke-width="1"/>
	<text x="344" y="152.7" fill="#000000" font-family="Verdana" font-size="12">login</text>
	<text x="344" y="169.7" fill="#000000" font-family="Verdana" font-size="12">nom</text>
	<text x="344" y="186.7" fill="#000000" font-family="Verdana" font-size="12">prenom</text>
	<text x="344" y="203.7" fill="#000000" font-family="Verdana" font-size="12">email</text>
	<text x="344" y="220.8" fill="#000000" font-family="Verdana" font-size="12">datedenaissance</text>
	<text x="344" y="237.8" fill="#000000" font-family="Verdana" font-size="12">homme</text>
	<text x="344" y="254.8" fill="#000000" font-family="Verdana" font-size="12">motdepasse</text>
	<text x="344" y="271.8" fill="#000000" font-family="Verdana" font-size="12">presel</text>
	<text x="344" y="288.8" fill="#000000" font-family="Verdana" font-size="12">postsel</text>
	<text x="344" y="305.8" fill="#000000" font-family="Verdana" font-size="12">cartedepayement</text>
	<text x="344" y="322.8" fill="#000000" font-family="Verdana" font-size="12">actif</text>
</g>

<!-- Entity Arbre -->
<g id="entity-Arbre">
	<g id="frame-Arbre">
		<rect x="499" y="457" width="78" height="25" fill="#fdae61" stroke="#fdae61" stroke-width="0"/>
		<rect x="499" y="482.0" width="78" height="59" fill="#fee08b" stroke="#fee08b" stroke-width="0"/>
		<rect x="499" y="457" width="78" height="84" fill="none" stroke="#f46d43" stroke-width="2"/>
		<line x1="499" y1="482" x2="577" y2="482" stroke="#f46d43" stroke-width="1"/>
	</g>
	<text x="521" y="474.7" fill="#000000" font-family="Verdana" font-size="12">Arbre</text>
	<text x="504" y="499.8" fill="#000000" font-family="Verdana" font-size="12">id</text>
	<line x1="504" y1="502" x2="516" y2="502" stroke="#000000" stroke-width="1"/>
	<text x="504" y="516.8" fill="#000000" font-family="Verdana" font-size="12">nom</text>
	<text x="504" y="533.8" fill="#000000" font-family="Verdana" font-size="12">description</text>
</g>

<!-- Entity Personne -->
<g id="entity-Personne">
	<g id="frame-Personne">
		<rect x="191" y="431" width="112" height="25" fill="#fdae61" stroke="#fdae61" stroke-width="0"/>
		<rect x="191" y="456.0" width="112" height="111" fill="#fee08b" stroke="#fee08b" stroke-width="0"/>
		<rect x="191" y="431" width="112" height="136" fill="none" stroke="#f46d43" stroke-width="2"/>
		<line x1="191" y1="456" x2="303" y2="456" stroke="#f46d43" stroke-width="1"/>
	</g>
	<text x="219" y="448.7" fill="#000000" font-family="Verdana" font-size="12">Personne</text>
	<text x="196" y="473.7" fill="#000000" font-family="Verdana" font-size="12">id</text>
	<line x1="196" y1="476" x2="208" y2="476" stroke="#000000" stroke-width="1"/>
	<text x="196" y="490.7" fill="#000000" font-family="Verdana" font-size="12">nom</text>
	<text x="196" y="507.8" fill="#000000" font-family="Verdana" font-size="12">prenom</text>
	<text x="196" y="524.8" fill="#000000" font-family="Verdana" font-size="12">homme</text>
	<text x="196" y="541.8" fill="#000000" font-family="Verdana" font-size="12">datedenaissance</text>
	<text x="196" y="558.8" fill="#000000" font-family="Verdana" font-size="12">datededeces</text>
</g>

<!-- Entity Role -->
<g id="entity-Role">
	<g id="frame-Role">
		<rect x="228" y="9" width="38" height="25" fill="#fdae61" stroke="#fdae61" stroke-width="0"/>
		<rect x="228" y="34.0" width="38" height="43" fill="#fee08b" stroke="#fee08b" stroke-width="0"/>
		<rect x="228" y="9" width="38" height="68" fill="none" stroke="#f46d43" stroke-width="2"/>
		<line x1="228" y1="34" x2="266" y2="34" stroke="#f46d43" stroke-width="1"/>
	</g>
	<text x="233" y="26.7" fill="#000000" font-family="Verdana" font-size="12">Role</text>
	<text x="233" y="51.8" fill="#000000" font-family="Verdana" font-size="12">id</text>
	<line x1="233" y1="54" x2="245" y2="54" stroke="#000000" stroke-width="1"/>
	<text x="233" y="68.8" fill="#000000" font-family="Verdana" font-size="12">nom</text>
</g>

<!-- Entity Abonnement -->
<g id="entity-Abonnement">
	<g id="frame-Abonnement">
		<rect x="9" y="127" width="146" height="25" fill="#fdae61" stroke="#fdae61" stroke-width="0"/>
		<rect x="9" y="152.0" width="146" height="145" fill="#fee08b" stroke="#fee08b" stroke-width="0"/>
		<rect x="9" y="127" width="146" height="170" fill="none" stroke="#f46d43" stroke-width="2"/>
		<line x1="9" y1="152" x2="155" y2="152" stroke="#f46d43" stroke-width="1"/>
	</g>
	<text x="43" y="144.7" fill="#000000" font-family="Verdana" font-size="12">Abonnement</text>
	<text x="14" y="169.7" fill="#000000" font-family="Verdana" font-size="12">id</text>
	<line x1="14" y1="172" x2="26" y2="172" stroke="#000000" stroke-width="1"/>
	<text x="14" y="186.7" fill="#000000" font-family="Verdana" font-size="12">nom</text>
	<text x="14" y="203.7" fill="#000000" font-family="Verdana" font-size="12">description</text>
	<text x="14" y="220.8" fill="#000000" font-family="Verdana" font-size="12">duree</text>
	<text x="14" y="237.8" fill="#000000" font-family="Verdana" font-size="12">prix</text>
	<text x="14" y="254.8" fill="#000000" font-family="Verdana" font-size="12">actif</text>
	<text x="14" y="271.8" fill="#000000" font-family="Verdana" font-size="12">nombremaxarbres</text>
	<text x="14" y="288.8" fill="#000000" font-family="Verdana" font-size="12">nombremaxpersonnes</text>
</g>

<!-- Entity Blocage -->
<g id="entity-Blocage">
	<g id="frame-Blocage">
		<rect x="604" y="339" width="78" height="25" fill="#fdae61" stroke="#fdae61" stroke-width="0"/>
		<rect x="604" y="364.0" width="78" height="59" fill="#fee08b" stroke="#fee08b" stroke-width="0"/>
		<rect x="604" y="339" width="78" height="84" fill="none" stroke="#f46d43" stroke-width="2"/>
		<line x1="604" y1="364" x2="682" y2="364" stroke="#f46d43" stroke-width="1"/>
	</g>
	<text x="619" y="356.7" fill="#000000" font-family="Verdana" font-size="12">Blocage</text>
	<text x="609" y="381.8" fill="#000000" font-family="Verdana" font-size="12">id</text>
	<line x1="609" y1="384" x2="621" y2="384" stroke="#000000" stroke-width="1"/>
	<text x="609" y="398.8" fill="#000000" font-family="Verdana" font-size="12">nom</text>
	<text x="609" y="415.8" fill="#000000" font-family="Verdana" font-size="12">description</text>
</g>
</svg>