<?xml version="1.0" standalone="no"?>
<!DOCTYPE svg PUBLIC "-//W3C//DTD SVG 1.1//EN"
"http://www.w3.org/Graphics/SVG/1.1/DTD/svg11.dtd">

<svg width="591" height="467" view_box="0 0 591 467"
xmlns="http://www.w3.org/2000/svg"
xmlns:link="http://www.w3.org/1999/xlink">\n\n<desc>Généré par Mocodo 2.3.7 le Sun, 06 Sep 2020 22:32:43</desc>

<rect id="frame" x="0" y="0" width="591" height="467" fill="#f7f7f7" stroke="none" stroke-width="0"/>

<!-- Association Efface -->
<line x1="308" y1="255" x2="308" y2="60" stroke="#d6604d" stroke-width="2"/>
<text x="313.0" y="128" fill="#2166ac" font-family="Verdana" font-size="12">0,n</text>
<line x1="176" y1="60" x2="308" y2="60" stroke="#d6604d" stroke-width="2"/>
<text x="236" y="77.0" fill="#2166ac" font-family="Verdana" font-size="12">0,n</text>
<g id="association-Efface">
	<path d="M 320 35 a 14 14 90 0 1 14 14 V 60 h -52 V 49 a 14 14 90 0 1 14 -14" fill="#f4a582" stroke="#f4a582" stroke-width="0"/>
	<path d="M 334 60.0 v 11 a 14 14 90 0 1 -14 14 H 296 a 14 14 90 0 1 -14 -14 V 60.0 H 52" fill="#fddbc7" stroke="#fddbc7" stroke-width="0"/>
	<rect x="282" y="35" width="52" height="50" fill="none" rx="14" stroke="#d6604d" stroke-width="2"/>
	<line x1="282" y1="60" x2="334" y2="60" stroke="#d6604d" stroke-width="1"/>
	<text x="289" y="52.7" fill="#000000" font-family="Verdana" font-size="12">Efface</text>
	<text x="289" y="77.8" fill="#000000" font-family="Verdana" font-size="12">date</text>
</g>

<!-- Association Ecrit -->
<line x1="422" y1="424" x2="531" y2="424" stroke="#d6604d" stroke-width="2"/>
<text x="453" y="441.0" fill="#2166ac" font-family="Verdana" font-size="12">0,n</text>
<line x1="531" y1="255" x2="531" y2="424" stroke="#d6604d" stroke-width="2"/>
<text x="536.0" y="323" fill="#2166ac" font-family="Verdana" font-size="12">1,1</text>
<g id="association-Ecrit">
	<path d="M 538 399 a 14 14 90 0 1 14 14 V 424 h -42 V 413 a 14 14 90 0 1 14 -14" fill="#f4a582" stroke="#f4a582" stroke-width="0"/>
	<path d="M 552 424.0 v 11 a 14 14 90 0 1 -14 14 H 524 a 14 14 90 0 1 -14 -14 V 424.0 H 42" fill="#fddbc7" stroke="#fddbc7" stroke-width="0"/>
	<rect x="510" y="399" width="42" height="50" fill="none" rx="14" stroke="#d6604d" stroke-width="2"/>
	<line x1="510" y1="424" x2="552" y2="424" stroke="#d6604d" stroke-width="1"/>
	<text x="517" y="416.7" fill="#000000" font-family="Verdana" font-size="12">Ecrit</text>
	<text x="517" y="441.8" fill="#000000" font-family="Verdana" font-size="12">date</text>
</g>

<!-- Association Forume -->
<line x1="308" y1="255" x2="308" y2="424" stroke="#d6604d" stroke-width="2"/>
<text x="313.0" y="391" fill="#2166ac" font-family="Verdana" font-size="12">0,n</text>
<line x1="422" y1="424" x2="308" y2="424" stroke="#d6604d" stroke-width="2"/>
<text x="370" y="441.0" fill="#2166ac" font-family="Verdana" font-size="12">1,n</text>
<g id="association-Forume">
	<path d="M 325 399 a 14 14 90 0 1 14 14 V 424 h -62 V 413 a 14 14 90 0 1 14 -14" fill="#f4a582" stroke="#f4a582" stroke-width="0"/>
	<path d="M 339 424.0 v 11 a 14 14 90 0 1 -14 14 H 291 a 14 14 90 0 1 -14 -14 V 424.0 H 62" fill="#fddbc7" stroke="#fddbc7" stroke-width="0"/>
	<rect x="277" y="399" width="62" height="50" fill="none" rx="14" stroke="#d6604d" stroke-width="2"/>
	<line x1="277" y1="424" x2="339" y2="424" stroke="#d6604d" stroke-width="1"/>
	<text x="284" y="416.7" fill="#000000" font-family="Verdana" font-size="12">Forume</text>
	<text x="284" y="441.8" fill="#000000" font-family="Verdana" font-size="12">date</text>
</g>

<!-- Association blablate -->
<line x1="54" y1="255" x2="54" y2="60" stroke="#d6604d" stroke-width="2"/>
<text x="59.0" y="222" fill="#2166ac" font-family="Verdana" font-size="12">1,n</text>
<line x1="176" y1="60" x2="54" y2="60" stroke="#d6604d" stroke-width="2"/>
<text x="95" y="77.0" fill="#2166ac" font-family="Verdana" font-size="12">1,1</text>
<g id="association-blablate">
	<path d="M 75 26 a 14 14 90 0 1 14 14 V 51 h -70 V 40 a 14 14 90 0 1 14 -14" fill="#f4a582" stroke="#f4a582" stroke-width="0"/>
	<path d="M 89 51.0 v 29 a 14 14 90 0 1 -14 14 H 33 a 14 14 90 0 1 -14 -14 V 51.0 H 70" fill="#fddbc7" stroke="#fddbc7" stroke-width="0"/>
	<rect x="19" y="26" width="70" height="68" fill="none" rx="14" stroke="#d6604d" stroke-width="2"/>
	<line x1="19" y1="51" x2="89" y2="51" stroke="#d6604d" stroke-width="1"/>
	<text x="29" y="43.7" fill="#000000" font-family="Verdana" font-size="12">blablate</text>
	<text x="26" y="68.8" fill="#000000" font-family="Verdana" font-size="12">date</text>
	<text x="26" y="85.8" fill="#000000" font-family="Verdana" font-size="12">émetteur</text>
</g>

<!-- Association Lit -->
<line x1="308" y1="255" x2="176" y2="255" stroke="#d6604d" stroke-width="2"/>
<text x="226" y="247.0" fill="#2166ac" font-family="Verdana" font-size="12">0,n</text>
<line x1="176" y1="60" x2="176" y2="255" stroke="#d6604d" stroke-width="2"/>
<text x="181.0" y="119" fill="#2166ac" font-family="Verdana" font-size="12">0,n</text>
<g id="association-Lit">
	<path d="M 183 230 a 14 14 90 0 1 14 14 V 255 h -42 V 244 a 14 14 90 0 1 14 -14" fill="#f4a582" stroke="#f4a582" stroke-width="0"/>
	<path d="M 197 255.0 v 11 a 14 14 90 0 1 -14 14 H 169 a 14 14 90 0 1 -14 -14 V 255.0 H 42" fill="#fddbc7" stroke="#fddbc7" stroke-width="0"/>
	<rect x="155" y="230" width="42" height="50" fill="none" rx="14" stroke="#d6604d" stroke-width="2"/>
	<line x1="155" y1="255" x2="197" y2="255" stroke="#d6604d" stroke-width="1"/>
	<text x="168" y="247.7" fill="#000000" font-family="Verdana" font-size="12">Lit</text>
	<text x="162" y="272.8" fill="#000000" font-family="Verdana" font-size="12">date</text>
</g>

<!-- Association Publie -->
<line x1="308" y1="255" x2="422" y2="255" stroke="#d6604d" stroke-width="2"/>
<text x="369" y="272.0" fill="#2166ac" font-family="Verdana" font-size="12">0,n</text>
<line x1="422" y1="60" x2="422" y2="255" stroke="#d6604d" stroke-width="2"/>
<text x="427.0" y="128" fill="#2166ac" font-family="Verdana" font-size="12">1,1</text>
<g id="association-Publie">
	<path d="M 434 230 a 14 14 90 0 1 14 14 V 255 h -52 V 244 a 14 14 90 0 1 14 -14" fill="#f4a582" stroke="#f4a582" stroke-width="0"/>
	<path d="M 448 255.0 v 11 a 14 14 90 0 1 -14 14 H 410 a 14 14 90 0 1 -14 -14 V 255.0 H 52" fill="#fddbc7" stroke="#fddbc7" stroke-width="0"/>
	<rect x="396" y="230" width="52" height="50" fill="none" rx="14" stroke="#d6604d" stroke-width="2"/>
	<line x1="396" y1="255" x2="448" y2="255" stroke="#d6604d" stroke-width="1"/>
	<text x="403" y="247.7" fill="#000000" font-family="Verdana" font-size="12">Publie</text>
	<text x="403" y="272.8" fill="#000000" font-family="Verdana" font-size="12">date</text>
</g>

<!-- Association RejointConversation -->
<line x1="308" y1="255" x2="176" y2="424" stroke="#d6604d" stroke-width="2"/>
<text x="226" y="324.547928584" fill="#2166ac" font-family="Verdana" font-size="12">0,n</text>
<line x1="54" y1="255" x2="176" y2="424" stroke="#d6604d" stroke-width="2"/>
<text x="51.5238950263" y="297" fill="#2166ac" font-family="Verdana" font-size="12">0,n</text>
<g id="association-RejointConversation">
	<path d="M 231 399 a 14 14 90 0 1 14 14 V 424 h -138 V 413 a 14 14 90 0 1 14 -14" fill="#f4a582" stroke="#f4a582" stroke-width="0"/>
	<path d="M 245 424.0 v 11 a 14 14 90 0 1 -14 14 H 121 a 14 14 90 0 1 -14 -14 V 424.0 H 138" fill="#fddbc7" stroke="#fddbc7" stroke-width="0"/>
	<rect x="107" y="399" width="138" height="50" fill="none" rx="14" stroke="#d6604d" stroke-width="2"/>
	<line x1="107" y1="424" x2="245" y2="424" stroke="#d6604d" stroke-width="1"/>
	<text x="114" y="416.7" fill="#000000" font-family="Verdana" font-size="12">RejointConversation</text>
</g>

<!-- Entity Utilisateur -->
<g id="entity-Utilisateur">
	<g id="frame-Utilisateur">
		<rect x="252" y="136" width="112" height="25" fill="#92c5de" stroke="#92c5de" stroke-width="0"/>
		<rect x="252" y="161.0" width="112" height="213" fill="#d1e5f0" stroke="#d1e5f0" stroke-width="0"/>
		<rect x="252" y="136" width="112" height="238" fill="none" stroke="#4393c3" stroke-width="2"/>
		<line x1="252" y1="161" x2="364" y2="161" stroke="#4393c3" stroke-width="1"/>
	</g>
	<text x="277" y="153.7" fill="#000000" font-family="Verdana" font-size="12">Utilisateur</text>
	<text x="257" y="178.7" fill="#000000" font-family="Verdana" font-size="12">id</text>
	<line x1="257" y1="181" x2="269" y2="181" stroke="#000000" stroke-width="1"/>
	<text x="257" y="195.7" fill="#000000" font-family="Verdana" font-size="12">login</text>
	<text x="257" y="212.7" fill="#000000" font-family="Verdana" font-size="12">nom</text>
	<text x="257" y="229.7" fill="#000000" font-family="Verdana" font-size="12">prenom</text>
	<text x="257" y="246.7" fill="#000000" font-family="Verdana" font-size="12">email</text>
	<text x="257" y="263.8" fill="#000000" font-family="Verdana" font-size="12">datedenaissance</text>
	<text x="257" y="280.8" fill="#000000" font-family="Verdana" font-size="12">homme</text>
	<text x="257" y="297.8" fill="#000000" font-family="Verdana" font-size="12">motdepasse</text>
	<text x="257" y="314.8" fill="#000000" font-family="Verdana" font-size="12">presel</text>
	<text x="257" y="331.8" fill="#000000" font-family="Verdana" font-size="12">postsel</text>
	<text x="257" y="348.8" fill="#000000" font-family="Verdana" font-size="12">cartedecredit</text>
	<text x="257" y="365.8" fill="#000000" font-family="Verdana" font-size="12">actif</text>
</g>

<!-- Entity Nouvelle -->
<g id="entity-Nouvelle">
	<g id="frame-Nouvelle">
		<rect x="390" y="9" width="64" height="25" fill="#92c5de" stroke="#92c5de" stroke-width="0"/>
		<rect x="390" y="34.0" width="64" height="77" fill="#d1e5f0" stroke="#d1e5f0" stroke-width="0"/>
		<rect x="390" y="9" width="64" height="102" fill="none" stroke="#4393c3" stroke-width="2"/>
		<line x1="390" y1="34" x2="454" y2="34" stroke="#4393c3" stroke-width="1"/>
	</g>
	<text x="395" y="26.7" fill="#000000" font-family="Verdana" font-size="12">Nouvelle</text>
	<text x="395" y="51.7" fill="#000000" font-family="Verdana" font-size="12">id</text>
	<line x1="395" y1="54" x2="407" y2="54" stroke="#000000" stroke-width="1"/>
	<text x="395" y="68.8" fill="#000000" font-family="Verdana" font-size="12">titre</text>
	<text x="395" y="85.8" fill="#000000" font-family="Verdana" font-size="12">texte</text>
	<text x="395" y="102.8" fill="#000000" font-family="Verdana" font-size="12">actif</text>
</g>

<!-- Entity Conversation -->
<g id="entity-Conversation">
	<g id="frame-Conversation">
		<rect x="9" y="230" width="90" height="25" fill="#92c5de" stroke="#92c5de" stroke-width="0"/>
		<rect x="9" y="255.0" width="90" height="25" fill="#d1e5f0" stroke="#d1e5f0" stroke-width="0"/>
		<rect x="9" y="230" width="90" height="50" fill="none" stroke="#4393c3" stroke-width="2"/>
		<line x1="9" y1="255" x2="99" y2="255" stroke="#4393c3" stroke-width="1"/>
	</g>
	<text x="14" y="247.7" fill="#000000" font-family="Verdana" font-size="12">Conversation</text>
	<text x="14" y="272.8" fill="#000000" font-family="Verdana" font-size="12">id</text>
	<line x1="14" y1="275" x2="26" y2="275" stroke="#000000" stroke-width="1"/>
</g>

<!-- Entity Theme -->
<g id="entity-Theme">
	<g id="frame-Theme">
		<rect x="396" y="390" width="52" height="25" fill="#92c5de" stroke="#92c5de" stroke-width="0"/>
		<rect x="396" y="415.0" width="52" height="43" fill="#d1e5f0" stroke="#d1e5f0" stroke-width="0"/>
		<rect x="396" y="390" width="52" height="68" fill="none" stroke="#4393c3" stroke-width="2"/>
		<line x1="396" y1="415" x2="448" y2="415" stroke="#4393c3" stroke-width="1"/>
	</g>
	<text x="401" y="407.7" fill="#000000" font-family="Verdana" font-size="12">Theme</text>
	<text x="401" y="432.8" fill="#000000" font-family="Verdana" font-size="12">id</text>
	<line x1="401" y1="435" x2="413" y2="435" stroke="#000000" stroke-width="1"/>
	<text x="401" y="449.8" fill="#000000" font-family="Verdana" font-size="12">nom</text>
</g>

<!-- Entity MessageForum -->
<g id="entity-MessageForum">
	<g id="frame-MessageForum">
		<rect x="480" y="204" width="102" height="25" fill="#92c5de" stroke="#92c5de" stroke-width="0"/>
		<rect x="480" y="229.0" width="102" height="77" fill="#d1e5f0" stroke="#d1e5f0" stroke-width="0"/>
		<rect x="480" y="204" width="102" height="102" fill="none" stroke="#4393c3" stroke-width="2"/>
		<line x1="480" y1="229" x2="582" y2="229" stroke="#4393c3" stroke-width="1"/>
	</g>
	<text x="485" y="221.7" fill="#000000" font-family="Verdana" font-size="12">MessageForum</text>
	<text x="485" y="246.7" fill="#000000" font-family="Verdana" font-size="12">id</text>
	<line x1="485" y1="249" x2="497" y2="249" stroke="#000000" stroke-width="1"/>
	<text x="485" y="263.8" fill="#000000" font-family="Verdana" font-size="12">titre</text>
	<text x="485" y="280.8" fill="#000000" font-family="Verdana" font-size="12">texte</text>
	<text x="485" y="297.8" fill="#000000" font-family="Verdana" font-size="12">actif</text>
</g>

<!-- Entity Message -->
<g id="entity-Message">
	<g id="frame-Message">
		<rect x="121" y="18" width="110" height="25" fill="#92c5de" stroke="#92c5de" stroke-width="0"/>
		<rect x="121" y="43.0" width="110" height="59" fill="#d1e5f0" stroke="#d1e5f0" stroke-width="0"/>
		<rect x="121" y="18" width="110" height="84" fill="none" stroke="#4393c3" stroke-width="2"/>
		<line x1="121" y1="43" x2="231" y2="43" stroke="#4393c3" stroke-width="1"/>
	</g>
	<text x="149" y="35.7" fill="#000000" font-family="Verdana" font-size="12">Message</text>
	<text x="126" y="60.8" fill="#000000" font-family="Verdana" font-size="12">id</text>
	<line x1="126" y1="63" x2="138" y2="63" stroke="#000000" stroke-width="1"/>
	<text x="126" y="77.8" fill="#000000" font-family="Verdana" font-size="12">sujet</text>
	<text x="126" y="94.8" fill="#000000" font-family="Verdana" font-size="12">textedumessage</text>
</g>
</svg>