<?xml version="1.0" standalone="no"?>
<!DOCTYPE svg PUBLIC "-//W3C//DTD SVG 1.1//EN"
"http://www.w3.org/Graphics/SVG/1.1/DTD/svg11.dtd">

<svg width="802" height="518" view_box="0 0 802 518"
xmlns="http://www.w3.org/2000/svg"
xmlns:link="http://www.w3.org/1999/xlink">\n\n<desc>Généré par Mocodo 2.3.7 le Sun, 06 Sep 2020 23:09:25</desc>

<rect id="frame" x="0" y="0" width="802" height="518" fill="#f7f7f7" stroke="none" stroke-width="0"/>

<!-- Entity Utilisateur -->
<g id="entity-Utilisateur">
	<g id="frame-Utilisateur">
		<rect x="270" y="170" width="112" height="25" fill="#fdb863" stroke="#fdb863" stroke-width="0"/>
		<rect x="270" y="195.0" width="112" height="213" fill="#fee0b6" stroke="#fee0b6" stroke-width="0"/>
		<rect x="270" y="170" width="112" height="238" fill="none" stroke="#e08214" stroke-width="2"/>
		<line x1="270" y1="195" x2="382" y2="195" stroke="#e08214" stroke-width="1"/>
	</g>
	<text x="295" y="187.7" fill="#000000" font-family="Verdana" font-size="12">Utilisateur</text>
	<text x="275" y="212.7" fill="#000000" font-family="Verdana" font-size="12">id</text>
	<line x1="275" y1="215" x2="287" y2="215" stroke="#000000" stroke-width="1"/>
	<text x="275" y="229.7" fill="#000000" font-family="Verdana" font-size="12">login</text>
	<text x="275" y="246.7" fill="#000000" font-family="Verdana" font-size="12">nom</text>
	<text x="275" y="263.7" fill="#000000" font-family="Verdana" font-size="12">prenom</text>
	<text x="275" y="280.7" fill="#000000" font-family="Verdana" font-size="12">email</text>
	<text x="275" y="297.8" fill="#000000" font-family="Verdana" font-size="12">datedenaissance</text>
	<text x="275" y="314.8" fill="#000000" font-family="Verdana" font-size="12">homme</text>
	<text x="275" y="331.8" fill="#000000" font-family="Verdana" font-size="12">motdepasse</text>
	<text x="275" y="348.8" fill="#000000" font-family="Verdana" font-size="12">presel</text>
	<text x="275" y="365.8" fill="#000000" font-family="Verdana" font-size="12">postsel</text>
	<text x="275" y="382.8" fill="#000000" font-family="Verdana" font-size="12">cartedecredit</text>
	<text x="275" y="399.8" fill="#000000" font-family="Verdana" font-size="12">actif</text>
</g>

<!-- Entity Arbre -->
<g id="entity-Arbre">
	<g id="frame-Arbre">
		<rect x="482" y="204" width="86" height="25" fill="#fdb863" stroke="#fdb863" stroke-width="0"/>
		<rect x="482" y="229.0" width="86" height="145" fill="#fee0b6" stroke="#fee0b6" stroke-width="0"/>
		<rect x="482" y="204" width="86" height="170" fill="none" stroke="#e08214" stroke-width="2"/>
		<line x1="482" y1="229" x2="568" y2="229" stroke="#e08214" stroke-width="1"/>
	</g>
	<text x="508" y="221.7" fill="#000000" font-family="Verdana" font-size="12">Arbre</text>
	<text x="487" y="246.7" fill="#000000" font-family="Verdana" font-size="12">id</text>
	<line x1="487" y1="249" x2="499" y2="249" stroke="#000000" stroke-width="1"/>
	<text x="487" y="263.7" fill="#000000" font-family="Verdana" font-size="12">nom</text>
	<text x="487" y="280.7" fill="#000000" font-family="Verdana" font-size="12">description</text>
	<text x="487" y="297.8" fill="#000000" font-family="Verdana" font-size="12">createur</text>
	<text x="487" y="314.8" fill="#000000" font-family="Verdana" font-size="12">datecreation</text>
	<text x="487" y="331.8" fill="#000000" font-family="Verdana" font-size="12">blocage</text>
	<text x="487" y="348.8" fill="#000000" font-family="Verdana" font-size="12">bloqueur</text>
	<text x="487" y="365.8" fill="#000000" font-family="Verdana" font-size="12">dateblocage</text>
</g>

<!-- Entity UtilisateurBlocage -->
<g id="entity-UtilisateurBlocage">
	<g id="frame-UtilisateurBlocage">
		<rect x="465" y="433" width="120" height="25" fill="#fdb863" stroke="#fdb863" stroke-width="0"/>
		<rect x="465" y="458.0" width="120" height="43" fill="#fee0b6" stroke="#fee0b6" stroke-width="0"/>
		<rect x="465" y="433" width="120" height="68" fill="none" stroke="#e08214" stroke-width="2"/>
		<line x1="465" y1="458" x2="585" y2="458" stroke="#e08214" stroke-width="1"/>
	</g>
	<text x="470" y="450.7" fill="#000000" font-family="Verdana" font-size="12">UtilisateurBlocage</text>
	<text x="470" y="475.8" fill="#000000" font-family="Verdana" font-size="12">bloqueur</text>
	<line x1="470" y1="478" x2="524" y2="478" stroke="#000000" stroke-width="1"/>
	<text x="470" y="492.8" fill="#000000" font-family="Verdana" font-size="12">blocage</text>
	<line x1="470" y1="495" x2="517" y2="495" stroke="#000000" stroke-width="1"/>
</g>

<!-- Entity Couple -->
<g id="entity-Couple">
	<g id="frame-Couple">
		<rect x="668" y="43" width="74" height="25" fill="#fdb863" stroke="#fdb863" stroke-width="0"/>
		<rect x="668" y="68.0" width="74" height="77" fill="#fee0b6" stroke="#fee0b6" stroke-width="0"/>
		<rect x="668" y="43" width="74" height="102" fill="none" stroke="#e08214" stroke-width="2"/>
		<line x1="668" y1="68" x2="742" y2="68" stroke="#e08214" stroke-width="1"/>
	</g>
	<text x="684" y="60.7" fill="#000000" font-family="Verdana" font-size="12">Couple</text>
	<text x="673" y="85.7" fill="#000000" font-family="Verdana" font-size="12">id</text>
	<line x1="673" y1="88" x2="685" y2="88" stroke="#000000" stroke-width="1"/>
	<text x="673" y="102.8" fill="#000000" font-family="Verdana" font-size="12">partenaire</text>
	<line x1="673" y1="105" x2="736" y2="105" stroke="#000000" stroke-width="1"/>
	<text x="673" y="119.8" fill="#000000" font-family="Verdana" font-size="12">datedebut</text>
	<line x1="673" y1="122" x2="735" y2="122" stroke="#000000" stroke-width="1"/>
	<text x="673" y="136.8" fill="#000000" font-family="Verdana" font-size="12">datefin</text>
</g>

<!-- Entity Personne -->
<g id="entity-Personne">
	<g id="frame-Personne">
		<rect x="649" y="187" width="112" height="25" fill="#fdb863" stroke="#fdb863" stroke-width="0"/>
		<rect x="649" y="212.0" width="112" height="179" fill="#fee0b6" stroke="#fee0b6" stroke-width="0"/>
		<rect x="649" y="187" width="112" height="204" fill="none" stroke="#e08214" stroke-width="2"/>
		<line x1="649" y1="212" x2="761" y2="212" stroke="#e08214" stroke-width="1"/>
	</g>
	<text x="677" y="204.7" fill="#000000" font-family="Verdana" font-size="12">Personne</text>
	<text x="654" y="229.7" fill="#000000" font-family="Verdana" font-size="12">id</text>
	<line x1="654" y1="232" x2="666" y2="232" stroke="#000000" stroke-width="1"/>
	<text x="654" y="246.7" fill="#000000" font-family="Verdana" font-size="12">nom</text>
	<text x="654" y="263.7" fill="#000000" font-family="Verdana" font-size="12">prenom</text>
	<text x="654" y="280.7" fill="#000000" font-family="Verdana" font-size="12">homme</text>
	<text x="654" y="297.8" fill="#000000" font-family="Verdana" font-size="12">datedenaissance</text>
	<text x="654" y="314.8" fill="#000000" font-family="Verdana" font-size="12">datededeces</text>
	<text x="654" y="331.8" fill="#000000" font-family="Verdana" font-size="12">arbre</text>
	<text x="654" y="348.8" fill="#000000" font-family="Verdana" font-size="12">dateajout</text>
	<text x="654" y="365.8" fill="#000000" font-family="Verdana" font-size="12">pere</text>
	<text x="654" y="382.8" fill="#000000" font-family="Verdana" font-size="12">mere</text>
</g>

<!-- Entity Role -->
<g id="entity-Role">
	<g id="frame-Role">
		<rect x="95" y="433" width="38" height="25" fill="#fdb863" stroke="#fdb863" stroke-width="0"/>
		<rect x="95" y="458.0" width="38" height="43" fill="#fee0b6" stroke="#fee0b6" stroke-width="0"/>
		<rect x="95" y="433" width="38" height="68" fill="none" stroke="#e08214" stroke-width="2"/>
		<line x1="95" y1="458" x2="133" y2="458" stroke="#e08214" stroke-width="1"/>
	</g>
	<text x="100" y="450.7" fill="#000000" font-family="Verdana" font-size="12">Role</text>
	<text x="100" y="475.8" fill="#000000" font-family="Verdana" font-size="12">id</text>
	<line x1="100" y1="478" x2="112" y2="478" stroke="#000000" stroke-width="1"/>
	<text x="100" y="492.8" fill="#000000" font-family="Verdana" font-size="12">nom</text>
</g>

<!-- Entity UtilisateurArbreLit -->
<g id="entity-UtilisateurArbreLit">
	<g id="frame-UtilisateurArbreLit">
		<rect x="465" y="52" width="120" height="25" fill="#fdb863" stroke="#fdb863" stroke-width="0"/>
		<rect x="465" y="77.0" width="120" height="59" fill="#fee0b6" stroke="#fee0b6" stroke-width="0"/>
		<rect x="465" y="52" width="120" height="84" fill="none" stroke="#e08214" stroke-width="2"/>
		<line x1="465" y1="77" x2="585" y2="77" stroke="#e08214" stroke-width="1"/>
	</g>
	<text x="470" y="69.7" fill="#000000" font-family="Verdana" font-size="12">UtilisateurArbreLit</text>
	<text x="470" y="94.8" fill="#000000" font-family="Verdana" font-size="12">lecteur</text>
	<line x1="470" y1="97" x2="512" y2="97" stroke="#000000" stroke-width="1"/>
	<text x="470" y="111.8" fill="#000000" font-family="Verdana" font-size="12">arbre</text>
	<line x1="470" y1="114" x2="503" y2="114" stroke="#000000" stroke-width="1"/>
	<text x="470" y="128.8" fill="#000000" font-family="Verdana" font-size="12">datelecture</text>
	<line x1="470" y1="131" x2="539" y2="131" stroke="#000000" stroke-width="1"/>
</g>

<!-- Entity UtilisateurRole -->
<g id="entity-UtilisateurRole">
	<g id="frame-UtilisateurRole">
		<rect x="277" y="433" width="98" height="25" fill="#fdb863" stroke="#fdb863" stroke-width="0"/>
		<rect x="277" y="458.0" width="98" height="43" fill="#fee0b6" stroke="#fee0b6" stroke-width="0"/>
		<rect x="277" y="433" width="98" height="68" fill="none" stroke="#e08214" stroke-width="2"/>
		<line x1="277" y1="458" x2="375" y2="458" stroke="#e08214" stroke-width="1"/>
	</g>
	<text x="282" y="450.7" fill="#000000" font-family="Verdana" font-size="12">UtilisateurRole</text>
	<text x="282" y="475.8" fill="#000000" font-family="Verdana" font-size="12">utilisateur</text>
	<line x1="282" y1="478" x2="343" y2="478" stroke="#000000" stroke-width="1"/>
	<text x="282" y="492.8" fill="#000000" font-family="Verdana" font-size="12">role</text>
	<line x1="282" y1="495" x2="306" y2="495" stroke="#000000" stroke-width="1"/>
</g>

<!-- Entity Abonnement -->
<g id="entity-Abonnement">
	<g id="frame-Abonnement">
		<rect x="41" y="9" width="146" height="25" fill="#fdb863" stroke="#fdb863" stroke-width="0"/>
		<rect x="41" y="34.0" width="146" height="145" fill="#fee0b6" stroke="#fee0b6" stroke-width="0"/>
		<rect x="41" y="9" width="146" height="170" fill="none" stroke="#e08214" stroke-width="2"/>
		<line x1="41" y1="34" x2="187" y2="34" stroke="#e08214" stroke-width="1"/>
	</g>
	<text x="75" y="26.7" fill="#000000" font-family="Verdana" font-size="12">Abonnement</text>
	<text x="46" y="51.7" fill="#000000" font-family="Verdana" font-size="12">id</text>
	<line x1="46" y1="54" x2="58" y2="54" stroke="#000000" stroke-width="1"/>
	<text x="46" y="68.7" fill="#000000" font-family="Verdana" font-size="12">nom</text>
	<text x="46" y="85.7" fill="#000000" font-family="Verdana" font-size="12">description</text>
	<text x="46" y="102.8" fill="#000000" font-family="Verdana" font-size="12">duree</text>
	<text x="46" y="119.8" fill="#000000" font-family="Verdana" font-size="12">prix</text>
	<text x="46" y="136.8" fill="#000000" font-family="Verdana" font-size="12">actif</text>
	<text x="46" y="153.8" fill="#000000" font-family="Verdana" font-size="12">nombremaxarbres</text>
	<text x="46" y="170.8" fill="#000000" font-family="Verdana" font-size="12">nombremaxpersonnes</text>
</g>

<!-- Entity UtilisateurAbonnement -->
<g id="entity-UtilisateurAbonnement">
	<g id="frame-UtilisateurAbonnement">
		<rect x="251" y="43" width="150" height="25" fill="#fdb863" stroke="#fdb863" stroke-width="0"/>
		<rect x="251" y="68.0" width="150" height="77" fill="#fee0b6" stroke="#fee0b6" stroke-width="0"/>
		<rect x="251" y="43" width="150" height="102" fill="none" stroke="#e08214" stroke-width="2"/>
		<line x1="251" y1="68" x2="401" y2="68" stroke="#e08214" stroke-width="1"/>
	</g>
	<text x="256" y="60.7" fill="#000000" font-family="Verdana" font-size="12">UtilisateurAbonnement</text>
	<text x="256" y="85.7" fill="#000000" font-family="Verdana" font-size="12">abonne</text>
	<line x1="256" y1="88" x2="301" y2="88" stroke="#000000" stroke-width="1"/>
	<text x="256" y="102.8" fill="#000000" font-family="Verdana" font-size="12">abonnement</text>
	<line x1="256" y1="105" x2="333" y2="105" stroke="#000000" stroke-width="1"/>
	<text x="256" y="119.8" fill="#000000" font-family="Verdana" font-size="12">date</text>
	<line x1="256" y1="122" x2="284" y2="122" stroke="#000000" stroke-width="1"/>
	<text x="256" y="136.8" fill="#000000" font-family="Verdana" font-size="12">cartedepayement</text>
</g>

<!-- Entity Blocage -->
<g id="entity-Blocage">
	<g id="frame-Blocage">
		<rect x="666" y="425" width="78" height="25" fill="#fdb863" stroke="#fdb863" stroke-width="0"/>
		<rect x="666" y="450.0" width="78" height="59" fill="#fee0b6" stroke="#fee0b6" stroke-width="0"/>
		<rect x="666" y="425" width="78" height="84" fill="none" stroke="#e08214" stroke-width="2"/>
		<line x1="666" y1="450" x2="744" y2="450" stroke="#e08214" stroke-width="1"/>
	</g>
	<text x="681" y="442.7" fill="#000000" font-family="Verdana" font-size="12">Blocage</text>
	<text x="671" y="467.8" fill="#000000" font-family="Verdana" font-size="12">id</text>
	<line x1="671" y1="470" x2="683" y2="470" stroke="#000000" stroke-width="1"/>
	<text x="671" y="484.8" fill="#000000" font-family="Verdana" font-size="12">nom</text>
	<text x="671" y="501.8" fill="#000000" font-family="Verdana" font-size="12">description</text>
</g>

<!-- Link from "id" (Arbre) to "id" (Utilisateur) -->
<path d="M482 293.5 C 432.0 251.0 448.666666667 208.5 382 208.5" fill="none" stroke="#8073ac" stroke-width="2"/>
<path d="M 382 208.5 L 394.0 202.5 L 390.0 208.5 L 394.0 214.5 Z" fill="#8073ac" stroke-width="0"/>
<circle cx="482" cy="293.5" r="2" stroke="#8073ac" stroke-width="2" fill="#8073ac"/>

<!-- Link from "blocage" (Arbre) to "blocage" (UtilisateurBlocage) -->
<path d="M482 327.5 C 428 408.0 411 488.5 465 488.5" fill="none" stroke="#8073ac" stroke-width="2"/>
<path d="M 465 488.5 L 453.0 494.5 L 457.0 488.5 L 453.0 482.5 Z" fill="#8073ac" stroke-width="0"/>
<circle cx="482" cy="327.5" r="2" stroke="#8073ac" stroke-width="2" fill="#8073ac"/>

<!-- Link from "bloqueur" (Arbre) to "bloqueur" (UtilisateurBlocage) -->
<path d="M568 344.5 C 622 408.0 639 471.5 585 471.5" fill="none" stroke="#8073ac" stroke-width="2"/>
<path d="M 585 471.5 L 597.0 465.5 L 593.0 471.5 L 597.0 477.5 Z" fill="#8073ac" stroke-width="0"/>
<circle cx="568" cy="344.5" r="2" stroke="#8073ac" stroke-width="2" fill="#8073ac"/>

<!-- Link from "id" (UtilisateurBlocage) to "id" (Utilisateur) -->
<path d="M465 471.5 C 423.5 340.0 437.333333333 208.5 382 208.5" fill="none" stroke="#8073ac" stroke-width="2"/>
<path d="M 382 208.5 L 394.0 202.5 L 390.0 208.5 L 394.0 214.5 Z" fill="#8073ac" stroke-width="0"/>
<circle cx="465" cy="471.5" r="2" stroke="#8073ac" stroke-width="2" fill="#8073ac"/>

<!-- Link from "id" (UtilisateurBlocage) to "id" (Blocage) -->
<path d="M585 488.5 C 625.5 476.0 612.0 463.5 666 463.5" fill="none" stroke="#8073ac" stroke-width="2"/>
<path d="M 666 463.5 L 654.0 469.5 L 658.0 463.5 L 654.0 457.5 Z" fill="#8073ac" stroke-width="0"/>
<circle cx="585" cy="488.5" r="2" stroke="#8073ac" stroke-width="2" fill="#8073ac"/>

<!-- Link from "id" (Couple) to "id" (Personne) -->
<path d="M742 81.5 C 796 153.5 815 225.5 761 225.5" fill="none" stroke="#8073ac" stroke-width="2"/>
<path d="M 761 225.5 L 773.0 219.5 L 769.0 225.5 L 773.0 231.5 Z" fill="#8073ac" stroke-width="0"/>
<circle cx="742" cy="81.5" r="2" stroke="#8073ac" stroke-width="2" fill="#8073ac"/>

<!-- Link from "id" (Couple) to "id" (Personne) -->
<path d="M668 98.5 C 614 162.0 595 225.5 649 225.5" fill="none" stroke="#8073ac" stroke-width="2"/>
<path d="M 649 225.5 L 637.0 231.5 L 641.0 225.5 L 637.0 219.5 Z" fill="#8073ac" stroke-width="0"/>
<circle cx="668" cy="98.5" r="2" stroke="#8073ac" stroke-width="2" fill="#8073ac"/>

<!-- Link from "id" (Personne) to "id" (Arbre) -->
<path d="M649 327.5 C 608.5 285.0 622.0 242.5 568 242.5" fill="none" stroke="#8073ac" stroke-width="2"/>
<path d="M 568 242.5 L 580.0 236.5 L 576.0 242.5 L 580.0 248.5 Z" fill="#8073ac" stroke-width="0"/>
<circle cx="649" cy="327.5" r="2" stroke="#8073ac" stroke-width="2" fill="#8073ac"/>

<!-- Link from "id" (Personne) to "id" (Personne) -->
<path d="M761 361.5 C 815 293.5 815 225.5 761 225.5" fill="none" stroke="#8073ac" stroke-width="2"/>
<path d="M 761 225.5 L 773.0 219.5 L 769.0 225.5 L 773.0 231.5 Z" fill="#8073ac" stroke-width="0"/>
<circle cx="761" cy="361.5" r="2" stroke="#8073ac" stroke-width="2" fill="#8073ac"/>

<!-- Link from "id" (Personne) to "id" (Personne) -->
<path d="M649 378.5 C 595 302.0 595 225.5 649 225.5" fill="none" stroke="#8073ac" stroke-width="2"/>
<path d="M 649 225.5 L 637.0 231.5 L 641.0 225.5 L 637.0 219.5 Z" fill="#8073ac" stroke-width="0"/>
<circle cx="649" cy="378.5" r="2" stroke="#8073ac" stroke-width="2" fill="#8073ac"/>

<!-- Link from "id" (UtilisateurArbreLit) to "id" (Utilisateur) -->
<path d="M465 90.5 C 423.5 149.5 437.333333333 208.5 382 208.5" fill="none" stroke="#8073ac" stroke-width="2"/>
<path d="M 382 208.5 L 394.0 202.5 L 390.0 208.5 L 394.0 214.5 Z" fill="#8073ac" stroke-width="0"/>
<circle cx="465" cy="90.5" r="2" stroke="#8073ac" stroke-width="2" fill="#8073ac"/>

<!-- Link from "id" (UtilisateurArbreLit) to "id" (Arbre) -->
<path d="M465 107.5 C 411 175.0 428 242.5 482 242.5" fill="none" stroke="#8073ac" stroke-width="2"/>
<path d="M 482 242.5 L 470.0 248.5 L 474.0 242.5 L 470.0 236.5 Z" fill="#8073ac" stroke-width="0"/>
<circle cx="465" cy="107.5" r="2" stroke="#8073ac" stroke-width="2" fill="#8073ac"/>

<!-- Link from "id" (UtilisateurRole) to "id" (Utilisateur) -->
<path d="M375 471.5 C 429 340.0 436 208.5 382 208.5" fill="none" stroke="#8073ac" stroke-width="2"/>
<path d="M 382 208.5 L 394.0 202.5 L 390.0 208.5 L 394.0 214.5 Z" fill="#8073ac" stroke-width="0"/>
<circle cx="375" cy="471.5" r="2" stroke="#8073ac" stroke-width="2" fill="#8073ac"/>

<!-- Link from "id" (UtilisateurRole) to "id" (Role) -->
<path d="M277 488.5 C 205.0 480.0 229.0 471.5 133 471.5" fill="none" stroke="#8073ac" stroke-width="2"/>
<path d="M 133 471.5 L 145.0 465.5 L 141.0 471.5 L 145.0 477.5 Z" fill="#8073ac" stroke-width="0"/>
<circle cx="277" cy="488.5" r="2" stroke="#8073ac" stroke-width="2" fill="#8073ac"/>

<!-- Link from "id" (UtilisateurAbonnement) to "id" (Utilisateur) -->
<path d="M401 81.5 C 455 145.0 436 208.5 382 208.5" fill="none" stroke="#8073ac" stroke-width="2"/>
<path d="M 382 208.5 L 394.0 202.5 L 390.0 208.5 L 394.0 214.5 Z" fill="#8073ac" stroke-width="0"/>
<circle cx="401" cy="81.5" r="2" stroke="#8073ac" stroke-width="2" fill="#8073ac"/>

<!-- Link from "id" (UtilisateurAbonnement) to "id" (Abonnement) -->
<path d="M251 98.5 C 219.0 73.0 229.666666667 47.5 187 47.5" fill="none" stroke="#8073ac" stroke-width="2"/>
<path d="M 187 47.5 L 199.0 41.5 L 195.0 47.5 L 199.0 53.5 Z" fill="#8073ac" stroke-width="0"/>
<circle cx="251" cy="98.5" r="2" stroke="#8073ac" stroke-width="2" fill="#8073ac"/>
</svg>